<svg width="717" height="189" viewBox="0 0 717 189" fill="none" xmlns="http://www.w3.org/2000/svg">
<g clip-path="url(#clip0)">
<path d="M271.98 38.3958C271.98 37.7074 273.195 40.4487 256.701 6.06664C254.963 2.44392 250.103 0.00933838 244.606 0.00933838C174.216 0.00933838 68.9678 0.00933838 27.3829 0.00933838C21.8867 0.00933838 17.0268 2.44355 15.2882 6.06664C-1.99197 42.0886 0.458413 36.9692 0.220971 37.4797C-0.0695914 38.0983 0.0100874 37.9122 0.0100874 44.3014C0.0100874 49.9194 3.25673 55.0182 8.50916 58.7472V147.649C8.50916 154.162 16.1344 159.461 25.5073 159.461H88.4833L85.6504 171.272H79.6894C73.2455 171.272 68.0032 174.915 68.0032 179.392V186.036C68.0032 187.667 69.9059 188.989 72.2527 188.989H199.739C202.086 188.989 203.988 187.667 203.988 186.036V179.392C203.988 174.915 198.746 171.272 192.302 171.272H186.341L183.508 159.461H246.484C255.857 159.461 263.482 154.162 263.482 147.649C263.482 143.409 263.482 62.6589 263.482 58.7472C268.735 55.0178 271.981 49.9191 271.981 44.3014V38.3958H271.98ZM248.638 7.93392L261.835 35.443H220.336L213.254 5.91494H244.607C246.439 5.91494 248.059 6.72622 248.638 7.93392ZM254.982 62.9727V129.933H17.0082V62.9727C19.6509 63.8474 22.5077 64.4572 25.5073 64.7569V121.075C25.5073 122.705 27.41 124.027 29.7568 124.027H242.234C244.58 124.027 246.483 122.705 246.483 121.075V64.7569C249.483 64.4572 252.34 63.8474 254.982 62.9727V62.9727ZM8.50916 41.3486H51.0045V44.3014C51.0045 52.4422 41.4728 59.0654 29.7568 59.0654C18.0409 59.0654 8.50916 52.4422 8.50916 44.3014V41.3486ZM105.879 5.91494L102.338 35.443H60.2701L67.3525 5.91494H105.879ZM157.582 5.91494L161.123 35.443H110.867L114.409 5.91494H157.582ZM204.637 5.91494L211.719 35.443H169.652L166.111 5.91494H204.637ZM135.995 59.0654C121.936 59.0654 110.498 51.1175 110.498 41.3486H161.492C161.492 51.1175 150.054 59.0654 135.995 59.0654ZM59.5036 41.3486H101.999V44.3014C101.999 52.4422 92.4672 59.0654 80.7513 59.0654C69.0353 59.0654 59.5036 52.4422 59.5036 44.3014V41.3486ZM237.984 118.121H34.0064V64.7569C43.0196 63.8567 50.74 60.1413 55.254 54.9351C67.2542 68.7757 96.3741 68.1751 107.142 53.8208C120.476 68.6605 151.482 68.6967 164.848 53.8208C175.6 68.153 204.715 68.8004 216.737 54.9351C221.251 60.1409 228.971 63.8567 237.985 64.7569V118.121H237.984ZM191.239 59.0654C179.523 59.0654 169.991 52.4422 169.991 44.3014V41.3486H212.487V44.3014C212.487 52.4422 202.955 59.0654 191.239 59.0654ZM23.3523 7.93392C23.9313 6.72622 25.5514 5.91494 27.3835 5.91494H58.7365L51.6542 35.443H10.1553L23.3523 7.93392ZM195.489 179.392V183.083H76.5017V179.392C76.5017 178.171 77.9312 177.177 79.6889 177.177H192.302C194.059 177.177 195.489 178.171 195.489 179.392ZM177.724 171.272H94.2664L97.0997 159.461H174.89L177.724 171.272ZM254.982 147.649C254.982 150.906 251.169 153.555 246.483 153.555C233.461 153.555 38.7122 153.555 25.5073 153.555C20.8211 153.555 17.0082 150.906 17.0082 147.649V135.838H254.982V147.649ZM263.481 44.3014C263.481 52.4422 253.95 59.0654 242.234 59.0654C230.518 59.0654 220.986 52.4422 220.986 44.3014V41.3486H263.481V44.3014Z" fill="#EBEBEB"/>
<path d="M131.746 73.8304C129.399 73.8304 127.496 75.1525 127.496 76.7832C127.496 78.4139 129.399 79.736 131.746 79.736H220.986C223.333 79.736 225.235 78.4139 225.235 76.7832C225.235 75.1525 223.333 73.8304 220.986 73.8304H131.746Z" fill="#ED254E"/>
<path d="M220.986 88.5944H131.746C129.399 88.5944 127.496 89.9165 127.496 91.5472C127.496 93.1779 129.399 94.5 131.746 94.5H220.986C223.333 94.5 225.235 93.1779 225.235 91.5472C225.235 89.9165 223.333 88.5944 220.986 88.5944V88.5944Z" fill="#ED254E"/>
<path d="M191.239 103.358H131.746C129.399 103.358 127.496 104.681 127.496 106.311C127.496 107.942 129.399 109.264 131.746 109.264H191.239C193.586 109.264 195.489 107.942 195.489 106.311C195.489 104.681 193.586 103.358 191.239 103.358Z" fill="#ED254E"/>
<path d="M106.248 85.6416C103.821 85.6416 99.1687 85.6416 96.8177 85.6416L93.3729 76.0671C92.8045 74.4852 90.5007 73.5233 88.2198 73.9186C85.9431 74.3143 84.5583 75.9173 85.1283 77.4996L88.0578 85.642H73.4458L76.3753 77.4996C76.9447 75.9173 75.5604 74.3143 73.2837 73.9186C71.0076 73.5237 68.6996 74.4852 68.1306 76.0671L64.6859 85.6416C62.3146 85.6416 57.6518 85.6416 55.2551 85.6416C52.9083 85.6416 51.0056 86.9637 51.0056 88.5944C51.0056 90.2251 52.9083 91.5472 55.2551 91.5472H55.9042L59.562 106.797C59.9041 108.22 61.6761 109.264 63.7542 109.264H97.7504C99.8279 109.264 101.601 108.221 101.943 106.797L105.6 91.5472H106.25C108.596 91.5472 110.499 90.2251 110.499 88.5944C110.499 86.9637 108.595 85.6416 106.248 85.6416V85.6416ZM94.149 103.358H67.353L64.5196 91.5472H96.9823L94.149 103.358Z" fill="#FFC857"/>
<path d="M132.069 145.827C133.404 148.051 137.708 148.254 139.527 146.336C140.853 144.97 140.265 143.117 138.353 142.243C134.939 140.642 130.448 143.113 132.069 145.827V145.827Z" fill="#ED254E"/>
</g>
<path d="M320.8 147.3C318.933 147.233 316.467 147.167 313.4 147.1C310.333 147.1 307.033 147.067 303.5 147C300.033 147 296.533 147 293 147C289.533 147 286.467 147 283.8 147C283.867 145.6 283.9 143.733 283.9 141.4C283.967 139.067 284 136.4 284 133.4C284 130.4 284 127.167 284 123.7C284 120.167 284 116.533 284 112.8C284 107.733 283.967 102.667 283.9 97.6C283.9 92.5333 283.9 87.8333 283.9 83.5C283.9 79.1 283.867 75.3 283.8 72.1C283.8 68.9 283.8 66.6333 283.8 65.3C286.4 65.3 289.267 65.3 292.4 65.3C295.533 65.3 298.733 65.3 302 65.3C305.267 65.2333 308.467 65.1667 311.6 65.1C314.733 65.0333 317.667 64.9667 320.4 64.9C320.4 65.7667 320.4 66.5333 320.4 67.2C320.467 67.8 320.5 68.6667 320.5 69.8C320.5 70.6 320.467 71.5667 320.4 72.7C320.4 73.7667 320.367 74.9 320.3 76.1C320.3 77.2333 320.267 78.4 320.2 79.6C320.2 80.7333 320.167 81.8 320.1 82.8H300V94.4H317.5V109.3H300V120.5H320.4C320.467 122.033 320.533 123.6 320.6 125.2C320.667 126.8 320.7 128.6 320.7 130.6C320.767 132.6 320.8 134.967 320.8 137.7C320.8 140.367 320.8 143.567 320.8 147.3ZM360.325 64C362.725 64 364.792 64.1667 366.525 64.5C368.325 64.7667 369.992 65.1667 371.525 65.7C371.525 66.8333 371.525 68.0333 371.525 69.3C371.592 70.5667 371.625 71.9333 371.625 73.4C371.625 74.8667 371.592 76.4333 371.525 78.1C371.525 79.7 371.525 81.2 371.525 82.6C368.992 81 365.958 80.2 362.425 80.2C359.092 80.2 356.292 80.8333 354.025 82.1C351.825 83.3 350.025 84.8667 348.625 86.8C347.292 88.7333 346.325 90.8667 345.725 93.2C345.192 95.4667 344.925 97.6333 344.925 99.7C344.925 102.5 345.358 105.133 346.225 107.6C347.092 110.067 348.292 112.233 349.825 114.1C351.425 115.9 353.258 117.333 355.325 118.4C357.458 119.467 359.758 120 362.225 120C363.358 120 364.792 119.833 366.525 119.5C368.325 119.167 369.992 118.533 371.525 117.6C371.525 119.933 371.525 122.367 371.525 124.9C371.592 127.433 371.625 129.9 371.625 132.3C371.625 134.833 371.592 137.3 371.525 139.7C371.525 142.1 371.525 144.5 371.525 146.9C367.792 147.7 363.992 148.1 360.125 148.1C354.258 148.1 348.992 147.133 344.325 145.2C339.725 143.267 335.792 140.5 332.525 136.9C329.325 133.233 326.858 128.833 325.125 123.7C323.458 118.5 322.625 112.7 322.625 106.3C322.625 100.167 323.425 94.5333 325.025 89.4C326.625 84.2 328.992 79.7333 332.125 76C335.325 72.2 339.258 69.2667 343.925 67.2C348.658 65.0667 354.125 64 360.325 64ZM402.806 64C412.74 64 420.073 67.5333 424.806 74.6C429.54 81.6667 431.906 91.9333 431.906 105.4C431.906 119.067 429.573 129.6 424.906 137C420.306 144.4 412.94 148.1 402.806 148.1C397.806 148.1 393.473 147.167 389.806 145.3C386.14 143.367 383.106 140.6 380.706 137C378.306 133.333 376.54 128.867 375.406 123.6C374.273 118.267 373.706 112.2 373.706 105.4C373.706 91.7333 376.073 81.4333 380.806 74.5C385.54 67.5 392.873 64 402.806 64ZM402.806 122.3C404.94 122.3 406.806 121.833 408.406 120.9C410.073 119.9 411.44 118.567 412.506 116.9C413.573 115.167 414.373 113.133 414.906 110.8C415.44 108.4 415.706 105.767 415.706 102.9C415.706 100.033 415.44 97.4 414.906 95C414.373 92.5333 413.573 90.4 412.506 88.6C411.44 86.8 410.073 85.4 408.406 84.4C406.806 83.4 404.94 82.9 402.806 82.9C400.673 82.9 398.806 83.4333 397.206 84.5C395.673 85.5 394.34 86.9 393.206 88.7C392.14 90.5 391.34 92.6333 390.806 95.1C390.273 97.5 390.006 100.1 390.006 102.9C390.006 105.767 390.273 108.4 390.806 110.8C391.34 113.133 392.14 115.167 393.206 116.9C394.34 118.567 395.673 119.9 397.206 120.9C398.806 121.833 400.673 122.3 402.806 122.3ZM485.046 96.9L472.146 143.5H462.846L450.746 98.2C450.813 106.333 450.946 114.533 451.146 122.8C451.413 131.067 451.613 139.133 451.746 147H435.946C436.079 140.133 436.179 133.333 436.246 126.6C436.313 119.8 436.346 112.967 436.346 106.1C436.346 99.2333 436.313 92.4333 436.246 85.7C436.179 78.9 436.079 72.0667 435.946 65.2H457.346L467.946 112.1L479.846 65.2H500.046C499.846 78.8 499.746 92.4333 499.746 106.1C499.746 119.767 499.846 133.4 500.046 147H484.046L485.046 96.9ZM522.675 101C523.875 101.333 525.008 101.567 526.075 101.7C527.208 101.767 528.175 101.8 528.975 101.8C530.242 101.8 531.442 101.667 532.575 101.4C533.775 101.067 534.808 100.533 535.675 99.8C536.542 99.0667 537.242 98.1 537.775 96.9C538.308 95.6333 538.575 94.0333 538.575 92.1C538.575 90.1 538.275 88.4667 537.675 87.2C537.142 85.8667 536.408 84.8333 535.475 84.1C534.542 83.3667 533.442 82.8667 532.175 82.6C530.975 82.3333 529.708 82.2 528.375 82.2C526.442 82.2 524.542 82.4 522.675 82.8V101ZM505.575 147C505.775 140.667 505.908 134.367 505.975 128.1C506.042 121.767 506.075 115.767 506.075 110.1C506.075 102.033 506.008 94.3667 505.875 87.1C505.808 79.8333 505.708 72.5333 505.575 65.2C508.842 64.8667 512.108 64.6 515.375 64.4C518.708 64.1333 521.975 64 525.175 64C529.775 64 534.075 64.3667 538.075 65.1C542.075 65.8333 545.542 67.2 548.475 69.2C551.475 71.1333 553.842 73.8667 555.575 77.4C557.308 80.8667 558.175 85.3333 558.175 90.8C558.175 95.8667 557.442 100.2 555.975 103.8C554.508 107.333 552.442 110.233 549.775 112.5C547.175 114.7 544.042 116.3 540.375 117.3C536.708 118.3 532.642 118.8 528.175 118.8C527.042 118.8 526.042 118.767 525.175 118.7C524.375 118.633 523.475 118.533 522.475 118.4C522.475 123.2 522.508 127.967 522.575 132.7C522.642 137.433 522.842 142.2 523.175 147H505.575ZM561.337 147C561.537 140.667 561.67 134.367 561.737 128.1C561.803 121.767 561.837 115.767 561.837 110.1C561.837 102.033 561.77 94.3667 561.637 87.1C561.57 79.8333 561.47 72.5333 561.337 65.2C564.603 64.8667 567.87 64.6 571.137 64.4C574.47 64.1333 577.837 64 581.237 64C586.103 64 590.67 64.3667 594.937 65.1C599.203 65.7667 602.903 67.0667 606.037 69C609.17 70.8667 611.637 73.4667 613.437 76.8C615.303 80.1333 616.237 84.4333 616.237 89.7C616.237 96.2333 614.87 101.367 612.137 105.1C609.47 108.833 605.837 111.633 601.237 113.5L617.537 147H599.737L586.437 116.5C583.703 116.7 580.87 116.8 577.937 116.8C577.937 121.933 577.97 126.967 578.037 131.9C578.103 136.833 578.303 141.867 578.637 147H561.337ZM577.937 101.6C580.003 101.8 581.903 101.9 583.637 101.9C588.17 101.9 591.37 101.067 593.237 99.4C595.17 97.6667 596.137 95.1 596.137 91.7C596.137 89.6333 595.837 87.9667 595.237 86.7C594.703 85.4333 593.937 84.4333 592.937 83.7C592.003 82.9667 590.87 82.4667 589.537 82.2C588.27 81.9333 586.903 81.8 585.437 81.8C584.37 81.8 583.17 81.8667 581.837 82C580.57 82.0667 579.27 82.2 577.937 82.4V101.6ZM617.123 147L631.923 65.2H656.623L671.323 147H654.423L651.923 130.6H636.523L634.123 147H617.123ZM639.223 112.7H649.223L644.223 79.7L639.223 112.7ZM672.641 85.5C672.641 81.2333 673.441 77.7333 675.041 75C676.708 72.2 678.775 70 681.241 68.4C683.775 66.7333 686.541 65.6 689.541 65C692.608 64.3333 695.541 64 698.341 64C699.141 64 700.141 64.0333 701.341 64.1C702.608 64.1667 703.908 64.2667 705.241 64.4C706.641 64.5333 708.041 64.7333 709.441 65C710.908 65.2 712.275 65.5 713.541 65.9C713.675 67.6333 713.775 69.2667 713.841 70.8C713.908 72.2667 713.941 73.9667 713.941 75.9C713.941 77.8333 713.908 79.7 713.841 81.5C713.775 83.2333 713.675 84.9 713.541 86.5C713.008 86.4333 712.308 86.3333 711.441 86.2C710.641 86.0667 709.775 85.9667 708.841 85.9C707.975 85.8333 707.075 85.7667 706.141 85.7C705.275 85.6333 704.441 85.6 703.641 85.6C700.441 85.6 698.108 86.1 696.641 87.1C695.175 88.1 694.441 89.4667 694.441 91.2C694.441 92.2 694.675 93.1667 695.141 94.1C695.608 94.9667 696.208 95.8 696.941 96.6C697.741 97.4 698.608 98.1667 699.541 98.9C700.541 99.6333 701.541 100.333 702.541 101C704.141 102.133 705.741 103.4 707.341 104.8C709.008 106.133 710.508 107.767 711.841 109.7C713.175 111.567 714.275 113.767 715.141 116.3C716.008 118.767 716.441 121.633 716.441 124.9C716.441 129.167 715.708 132.767 714.241 135.7C712.775 138.633 710.875 141.033 708.541 142.9C706.275 144.7 703.708 146.033 700.841 146.9C698.041 147.7 695.241 148.1 692.441 148.1C691.175 148.1 689.608 148 687.741 147.8C685.941 147.667 684.108 147.433 682.241 147.1C680.375 146.833 678.608 146.5 676.941 146.1C675.275 145.633 673.941 145.1 672.941 144.5C672.675 143.3 672.441 142.067 672.241 140.8C672.108 139.533 672.041 138.133 672.041 136.6C672.041 135.533 672.075 134.233 672.141 132.7C672.275 131.167 672.408 129.6 672.541 128C672.675 126.4 672.808 124.867 672.941 123.4C673.141 121.933 673.308 120.7 673.441 119.7C674.175 120.1 675.241 120.567 676.641 121.1C678.041 121.567 679.541 122.033 681.141 122.5C682.808 122.967 684.475 123.367 686.141 123.7C687.808 124.033 689.275 124.2 690.541 124.2C692.675 124.2 694.275 123.767 695.341 122.9C696.408 121.967 696.941 120.733 696.941 119.2C696.941 117.533 696.341 116.067 695.141 114.8C693.941 113.467 692.441 112.167 690.641 110.9C688.841 109.633 686.875 108.3 684.741 106.9C682.675 105.433 680.741 103.733 678.941 101.8C677.141 99.8667 675.641 97.6 674.441 95C673.241 92.3333 672.641 89.1667 672.641 85.5Z" fill="#EBEBEB"/>
<defs>
<clipPath id="clip0">
<rect width="272" height="189" fill="white"/>
</clipPath>
</defs>
</svg>
